<?xml version="1.0" standalone="no"?>
<!DOCTYPE svg PUBLIC "-//W3C//DTD SVG 20010904//EN"
 "http://www.w3.org/TR/2001/REC-SVG-20010904/DTD/svg10.dtd">
<svg version="1.0" xmlns="http://www.w3.org/2000/svg"
 width="1024.000000pt" height="1024.000000pt" viewBox="0 0 1024.000000 1024.000000"
 preserveAspectRatio="xMidYMid meet">
<metadata>
Created by potrace 1.14, written by Peter Selinger 2001-2017
</metadata>
<g transform="translate(0.000000,1024.000000) scale(0.100000,-0.100000)"
fill="#000000" stroke="none">
<path d="M3067 9455 c-22 -7 -50 -24 -64 -37 -53 -48 -53 -51 -53 -563 l0
-475 -449 0 c-492 0 -547 -5 -680 -59 -192 -78 -369 -257 -448 -451 -57 -141
-53 68 -51 -3327 l3 -3128 24 -70 c91 -272 302 -473 572 -547 l84 -23 3115 0
3115 0 84 23 c269 74 483 278 573 547 l23 70 3 3128 c2 3395 6 3186 -51 3327
-79 194 -256 373 -448 451 -133 54 -188 59 -680 59 l-449 0 0 475 c0 521 0
518 -59 568 -55 46 -84 48 -504 45 -415 -3 -412 -3 -465 -52 -51 -46 -52 -54
-52 -562 l0 -474 -1090 0 -1090 0 0 473 c0 471 0 473 -22 517 -27 52 -60 78
-114 90 -21 5 -208 9 -414 9 -292 0 -384 -3 -413 -14z m5041 -5261 l-3 -2556
-28 -24 -28 -24 -2929 0 -2929 0 -28 24 -28 24 -3 2556 -2 2556 2990 0 2990 0
-2 -2556z"/>
<path d="M3040 5638 c-33 -17 -51 -35 -67 -68 -23 -44 -23 -49 -23 -450 0
-401 0 -406 23 -450 16 -33 34 -51 67 -67 44 -23 49 -23 450 -23 401 0 406 0
450 23 33 16 51 34 68 67 22 44 22 49 22 450 0 401 0 406 -22 450 -17 33 -35
51 -68 68 -44 22 -49 22 -450 22 -401 0 -406 0 -450 -22z"/>
<path d="M4670 5638 c-33 -17 -51 -35 -67 -68 -23 -44 -23 -49 -23 -450 0
-401 0 -406 23 -450 16 -33 34 -51 67 -67 44 -23 49 -23 450 -23 401 0 406 0
450 23 33 16 51 34 68 67 22 44 22 49 22 450 0 401 0 406 -22 450 -17 33 -35
51 -68 68 -44 22 -49 22 -450 22 -401 0 -406 0 -450 -22z"/>
<path d="M6300 5638 c-33 -17 -51 -35 -67 -68 -23 -44 -23 -49 -23 -450 0
-401 0 -406 23 -450 16 -33 34 -51 67 -67 44 -23 49 -23 450 -23 401 0 406 0
450 23 33 16 51 34 68 67 22 44 22 49 22 450 0 401 0 406 -22 450 -17 33 -35
51 -68 68 -44 22 -49 22 -450 22 -401 0 -406 0 -450 -22z"/>
<path d="M3040 4008 c-33 -17 -51 -35 -67 -68 -23 -44 -23 -49 -23 -450 0
-401 0 -406 23 -450 17 -35 34 -51 72 -70 l50 -25 395 0 395 0 50 25 c38 19
55 35 73 70 22 44 22 49 22 450 0 401 0 406 -22 450 -17 33 -35 51 -68 68 -44
22 -49 22 -450 22 -401 0 -406 0 -450 -22z"/>
<path d="M4670 4008 c-33 -17 -51 -35 -67 -68 -23 -44 -23 -49 -23 -450 0
-401 0 -406 23 -450 17 -35 34 -51 72 -70 l50 -25 395 0 395 0 50 25 c38 19
55 35 73 70 22 44 22 49 22 450 0 401 0 406 -22 450 -17 33 -35 51 -68 68 -44
22 -49 22 -450 22 -401 0 -406 0 -450 -22z"/>
<path d="M6300 4008 c-33 -17 -51 -35 -67 -68 -23 -44 -23 -49 -23 -450 0
-401 0 -406 23 -450 17 -35 34 -51 72 -70 l50 -25 395 0 395 0 50 25 c38 19
55 35 73 70 22 44 22 49 22 450 0 401 0 406 -22 450 -17 33 -35 51 -68 68 -44
22 -49 22 -450 22 -401 0 -406 0 -450 -22z"/>
</g>
</svg>
